<svg width="27" height="27" viewBox="0 0 27 27" fill="none" xmlns="http://www.w3.org/2000/svg">
<path d="M13.3333 13.3333C11.5 13.3333 9.93056 12.6806 8.625 11.375C7.31944 10.0694 6.66667 8.5 6.66667 6.66667C6.66667 4.83333 7.31944 3.26389 8.625 1.95833C9.93056 0.652778 11.5 0 13.3333 0C15.1667 0 16.7361 0.652778 18.0417 1.95833C19.3472 3.26389 20 4.83333 20 6.66667C20 8.5 19.3472 10.0694 18.0417 11.375C16.7361 12.6806 15.1667 13.3333 13.3333 13.3333ZM0 26.6667V22C0 21.0556 0.243334 20.1872 0.73 19.395C1.21556 18.6039 1.86111 18 2.66667 17.5833C4.38889 16.7222 6.13889 16.0761 7.91667 15.645C9.69444 15.215 11.5 15 13.3333 15C15.1667 15 16.9722 15.215 18.75 15.645C20.5278 16.0761 22.2778 16.7222 24 17.5833C24.8056 18 25.4511 18.6039 25.9367 19.395C26.4233 20.1872 26.6667 21.0556 26.6667 22V26.6667H0Z" fill="#444444"/>
</svg>
